<mxfile host="app.diagrams.net" modified="2022-04-26T02:55:35.962Z" agent="5.0 (Windows NT 10.0; Win64; x64) AppleWebKit/537.36 (KHTML, like Gecko) Chrome/100.0.4896.127 Safari/537.36" etag="_eKh76knc_SfPo-epSAY" version="16.6.3" type="github">
  <diagram id="uxNTP5NZXsaJ7Xxg4Krc" name="Page-1">
    <mxGraphModel dx="1422" dy="794" grid="1" gridSize="10" guides="1" tooltips="1" connect="1" arrows="1" fold="1" page="1" pageScale="1" pageWidth="827" pageHeight="1169" math="0" shadow="0">
      <root>
        <mxCell id="0" />
        <mxCell id="1" parent="0" />
        <mxCell id="_5K5FGk0CYZzGSvNViEC-6" value="" style="rounded=0;whiteSpace=wrap;html=1;" vertex="1" parent="1">
          <mxGeometry x="120" y="570" width="100" height="25" as="geometry" />
        </mxCell>
        <mxCell id="_5K5FGk0CYZzGSvNViEC-7" value="Username" style="text;html=1;strokeColor=none;fillColor=none;align=center;verticalAlign=middle;whiteSpace=wrap;rounded=0;" vertex="1" parent="1">
          <mxGeometry x="50" y="570" width="60" height="30" as="geometry" />
        </mxCell>
        <mxCell id="_5K5FGk0CYZzGSvNViEC-8" value="" style="rounded=0;whiteSpace=wrap;html=1;" vertex="1" parent="1">
          <mxGeometry x="120" y="610" width="100" height="25" as="geometry" />
        </mxCell>
        <mxCell id="_5K5FGk0CYZzGSvNViEC-9" value="Password" style="text;html=1;strokeColor=none;fillColor=none;align=center;verticalAlign=middle;whiteSpace=wrap;rounded=0;" vertex="1" parent="1">
          <mxGeometry x="50" y="607.5" width="60" height="30" as="geometry" />
        </mxCell>
        <mxCell id="_5K5FGk0CYZzGSvNViEC-10" value="&lt;font style=&quot;font-size: 14px&quot;&gt;Login&lt;/font&gt;" style="text;html=1;strokeColor=none;fillColor=none;align=center;verticalAlign=middle;whiteSpace=wrap;rounded=0;fontStyle=1" vertex="1" parent="1">
          <mxGeometry x="130" y="530" width="60" height="30" as="geometry" />
        </mxCell>
        <mxCell id="_5K5FGk0CYZzGSvNViEC-16" style="edgeStyle=none;rounded=0;orthogonalLoop=1;jettySize=auto;html=1;exitX=1;exitY=0.5;exitDx=0;exitDy=0;entryX=0.5;entryY=0;entryDx=0;entryDy=0;fontSize=14;" edge="1" parent="1" source="_5K5FGk0CYZzGSvNViEC-11" target="_5K5FGk0CYZzGSvNViEC-13">
          <mxGeometry relative="1" as="geometry" />
        </mxCell>
        <mxCell id="_5K5FGk0CYZzGSvNViEC-11" value="Controller" style="rounded=0;whiteSpace=wrap;html=1;fontSize=21;" vertex="1" parent="1">
          <mxGeometry x="354" y="180" width="120" height="60" as="geometry" />
        </mxCell>
        <mxCell id="_5K5FGk0CYZzGSvNViEC-18" style="edgeStyle=none;rounded=0;orthogonalLoop=1;jettySize=auto;html=1;exitX=0;exitY=0.5;exitDx=0;exitDy=0;fontSize=19;" edge="1" parent="1" source="_5K5FGk0CYZzGSvNViEC-12">
          <mxGeometry relative="1" as="geometry">
            <mxPoint x="240" y="350" as="targetPoint" />
          </mxGeometry>
        </mxCell>
        <mxCell id="_5K5FGk0CYZzGSvNViEC-12" value="View" style="rounded=0;whiteSpace=wrap;html=1;fontSize=19;" vertex="1" parent="1">
          <mxGeometry x="354" y="410" width="120" height="60" as="geometry" />
        </mxCell>
        <mxCell id="_5K5FGk0CYZzGSvNViEC-17" style="edgeStyle=none;rounded=0;orthogonalLoop=1;jettySize=auto;html=1;exitX=0.5;exitY=1;exitDx=0;exitDy=0;entryX=1;entryY=0.5;entryDx=0;entryDy=0;fontSize=14;" edge="1" parent="1" source="_5K5FGk0CYZzGSvNViEC-13" target="_5K5FGk0CYZzGSvNViEC-12">
          <mxGeometry relative="1" as="geometry" />
        </mxCell>
        <mxCell id="_5K5FGk0CYZzGSvNViEC-13" value="Model" style="rounded=0;whiteSpace=wrap;html=1;fontSize=19;" vertex="1" parent="1">
          <mxGeometry x="530" y="300" width="120" height="60" as="geometry" />
        </mxCell>
        <mxCell id="_5K5FGk0CYZzGSvNViEC-15" style="rounded=0;orthogonalLoop=1;jettySize=auto;html=1;entryX=0;entryY=0.5;entryDx=0;entryDy=0;fontSize=14;" edge="1" parent="1" target="_5K5FGk0CYZzGSvNViEC-11">
          <mxGeometry relative="1" as="geometry">
            <mxPoint x="240" y="310" as="sourcePoint" />
          </mxGeometry>
        </mxCell>
        <mxCell id="_5K5FGk0CYZzGSvNViEC-14" value="User" style="shape=umlActor;verticalLabelPosition=bottom;verticalAlign=top;html=1;outlineConnect=0;fontSize=14;" vertex="1" parent="1">
          <mxGeometry x="200" y="300" width="30" height="60" as="geometry" />
        </mxCell>
        <mxCell id="_5K5FGk0CYZzGSvNViEC-19" value="&lt;font style=&quot;font-size: 17px;&quot;&gt;Request&lt;/font&gt;" style="text;html=1;strokeColor=none;fillColor=none;align=center;verticalAlign=middle;whiteSpace=wrap;rounded=0;fontStyle=1;rotation=-45;fontSize=17;" vertex="1" parent="1">
          <mxGeometry x="250" y="230" width="60" height="30" as="geometry" />
        </mxCell>
        <mxCell id="_5K5FGk0CYZzGSvNViEC-20" value="&lt;font style=&quot;font-size: 16px;&quot;&gt;Response&lt;/font&gt;" style="text;html=1;strokeColor=none;fillColor=none;align=center;verticalAlign=middle;whiteSpace=wrap;rounded=0;fontStyle=1;rotation=45;fontSize=16;" vertex="1" parent="1">
          <mxGeometry x="250" y="400" width="60" height="40" as="geometry" />
        </mxCell>
        <mxCell id="_5K5FGk0CYZzGSvNViEC-21" value="" style="shape=cylinder3;whiteSpace=wrap;html=1;boundedLbl=1;backgroundOutline=1;size=15;fontSize=17;" vertex="1" parent="1">
          <mxGeometry x="780" y="275" width="100" height="110" as="geometry" />
        </mxCell>
        <mxCell id="_5K5FGk0CYZzGSvNViEC-22" value="" style="endArrow=classic;startArrow=classic;html=1;rounded=0;fontSize=17;entryX=0;entryY=0.5;entryDx=0;entryDy=0;entryPerimeter=0;" edge="1" parent="1" target="_5K5FGk0CYZzGSvNViEC-21">
          <mxGeometry width="50" height="50" relative="1" as="geometry">
            <mxPoint x="650" y="330" as="sourcePoint" />
            <mxPoint x="700" y="280" as="targetPoint" />
          </mxGeometry>
        </mxCell>
        <mxCell id="_5K5FGk0CYZzGSvNViEC-24" value="&lt;font style=&quot;font-size: 17px&quot;&gt;Database&lt;/font&gt;" style="text;html=1;strokeColor=none;fillColor=none;align=center;verticalAlign=middle;whiteSpace=wrap;rounded=0;fontStyle=1;rotation=-1;fontSize=17;" vertex="1" parent="1">
          <mxGeometry x="800" y="330" width="60" height="30" as="geometry" />
        </mxCell>
        <mxCell id="_5K5FGk0CYZzGSvNViEC-25" value="&lt;font style=&quot;font-size: 17px&quot;&gt;Connect&lt;/font&gt;" style="text;html=1;strokeColor=none;fillColor=none;align=center;verticalAlign=middle;whiteSpace=wrap;rounded=0;fontStyle=1;rotation=-1;fontSize=17;" vertex="1" parent="1">
          <mxGeometry x="690" y="290" width="60" height="30" as="geometry" />
        </mxCell>
      </root>
    </mxGraphModel>
  </diagram>
</mxfile>
